<?xml version="1.0" standalone="no"?>
<!DOCTYPE svg PUBLIC "-//W3C//DTD SVG 20010904//EN"
 "http://www.w3.org/TR/2001/REC-SVG-20010904/DTD/svg10.dtd">
<svg version="1.0" xmlns="http://www.w3.org/2000/svg"
 width="2160.000000pt" height="2160.000000pt" viewBox="0 0 2160.000000 2160.000000"
 preserveAspectRatio="xMidYMid meet">
<metadata>
Created by potrace 1.14, written by Peter Selinger 2001-2017
</metadata>
<g transform="translate(0.000000,2160.000000) scale(0.100000,-0.100000)"
fill="#000000" stroke="none">
<path d="M5174 18402 c-15 -9 -21 -53 -11 -69 5 -8 3 -13 -4 -13 -8 0 -8 -4
-1 -13 7 -8 7 -18 2 -27 -5 -9 -5 -19 2 -27 7 -9 7 -13 -2 -13 -9 0 -9 -4 -2
-13 7 -8 7 -18 2 -27 -5 -9 -5 -19 2 -27 7 -9 7 -13 -2 -13 -9 0 -9 -4 -2 -13
7 -8 7 -18 2 -27 -5 -9 -5 -19 2 -27 7 -9 7 -13 -2 -13 -9 0 -9 -4 -2 -13 7
-8 7 -18 2 -27 -5 -9 -5 -19 2 -27 7 -9 7 -13 -2 -13 -9 0 -9 -4 -2 -13 7 -8
7 -18 2 -27 -5 -9 -5 -19 2 -27 7 -9 7 -13 -2 -13 -9 0 -9 -4 -2 -13 7 -8 7
-18 2 -27 -5 -9 -5 -19 2 -27 7 -9 7 -13 -2 -13 -9 0 -9 -4 -2 -13 7 -8 7 -18
2 -27 -5 -9 -5 -19 2 -27 7 -9 7 -13 -2 -13 -9 0 -9 -4 -2 -13 7 -8 7 -18 2
-27 -5 -9 -5 -19 2 -27 7 -9 7 -13 -2 -13 -9 0 -9 -4 -2 -13 7 -8 7 -18 2 -27
-5 -9 -5 -19 2 -27 7 -9 7 -13 -2 -13 -9 0 -9 -4 -2 -13 7 -8 7 -18 2 -27 -5
-9 -5 -19 2 -27 7 -9 7 -13 -2 -13 -9 0 -9 -4 -2 -13 7 -8 7 -18 2 -27 -5 -9
-5 -19 2 -27 7 -9 7 -13 -2 -13 -9 0 -9 -4 -2 -13 7 -8 7 -18 2 -27 -5 -9 -5
-19 2 -27 7 -9 7 -13 -2 -13 -9 0 -9 -4 -2 -13 7 -8 7 -18 2 -27 -5 -9 -5 -19
2 -27 7 -9 7 -13 -2 -13 -9 0 -9 -4 -2 -13 7 -8 7 -18 2 -27 -5 -9 -5 -19 2
-27 7 -9 7 -13 -2 -13 -9 0 -9 -4 -2 -13 7 -8 7 -18 2 -27 -5 -9 -5 -19 2 -27
7 -9 7 -13 -2 -13 -9 0 -9 -4 -2 -13 7 -8 7 -18 2 -27 -5 -9 -5 -19 2 -27 7
-9 7 -13 -2 -13 -9 0 -9 -4 -2 -13 7 -8 7 -18 2 -27 -5 -9 -5 -19 2 -27 7 -9
7 -13 -2 -13 -9 0 -9 -4 -2 -13 7 -8 7 -18 2 -27 -5 -9 -5 -19 2 -27 7 -9 7
-13 -2 -13 -9 0 -9 -4 -2 -13 7 -8 7 -18 2 -27 -5 -9 -5 -19 2 -27 7 -9 7 -13
-2 -13 -9 0 -9 -4 -2 -13 7 -8 7 -18 2 -27 -5 -9 -5 -19 2 -27 7 -9 7 -13 -2
-13 -9 0 -9 -4 -2 -13 7 -8 7 -18 2 -27 -5 -9 -5 -19 2 -27 7 -9 7 -13 -2 -13
-9 0 -9 -4 -2 -13 7 -8 7 -18 2 -27 -5 -9 -5 -19 2 -27 7 -9 7 -13 -2 -13 -9
0 -9 -4 -2 -13 7 -8 7 -18 2 -27 -5 -8 -6 -19 -3 -24 10 -15 10 -55 1 -50 -17
11 -7 -17 14 -38 14 -14 23 -17 26 -10 2 8 9 9 21 2 10 -5 21 -6 25 -3 7 8 66
10 66 3 0 -7 66 -4 79 4 5 4 12 2 16 -4 4 -6 11 -7 17 -4 13 8 68 11 68 4 0
-7 59 -4 66 3 4 3 16 1 27 -5 15 -8 22 -8 25 0 2 7 11 8 28 2 13 -5 24 -6 24
-2 0 4 16 7 35 7 19 0 35 -3 35 -7 0 -4 14 -3 30 2 17 5 30 5 30 2 0 -9 64 -7
79 3 6 3 11 1 11 -5 0 -6 5 -8 11 -5 13 9 79 12 79 5 0 -7 59 -5 66 3 4 3 16
1 27 -5 15 -8 22 -8 25 0 2 7 11 8 28 2 13 -5 24 -6 24 -2 0 4 16 7 35 7 19 0
35 -3 35 -7 0 -4 14 -3 30 2 17 5 30 5 30 2 0 -9 64 -7 79 3 6 3 11 1 11 -5 0
-6 5 -8 11 -5 13 9 79 12 79 5 0 -7 59 -5 66 3 4 3 16 1 27 -5 15 -8 22 -8 25
0 2 7 11 8 28 2 13 -5 24 -6 24 -2 0 4 16 7 35 7 19 0 35 -3 35 -7 0 -4 14 -3
30 2 17 5 30 5 30 2 0 -9 64 -7 79 3 6 3 11 1 11 -5 0 -6 5 -8 11 -5 13 9 79
12 79 5 0 -7 59 -5 66 3 4 3 16 1 27 -5 15 -8 22 -8 25 0 2 7 11 8 28 2 13 -5
24 -6 24 -2 0 4 16 7 35 7 19 0 35 -3 35 -7 0 -4 14 -3 30 2 17 5 30 5 30 2 0
-9 64 -7 79 3 6 3 11 1 11 -5 0 -6 5 -8 11 -5 13 9 79 12 79 5 0 -7 59 -5 66
3 4 3 16 1 27 -5 15 -8 22 -8 25 0 2 7 11 8 28 2 13 -5 24 -6 24 -2 0 4 16 7
35 7 19 0 35 -3 35 -7 0 -4 14 -3 30 2 17 5 30 5 30 2 0 -9 64 -7 79 3 6 3 11
1 11 -5 0 -6 5 -8 11 -5 13 9 79 12 79 5 0 -7 59 -5 66 3 4 3 16 1 27 -5 15
-8 22 -8 25 0 2 7 11 8 28 2 13 -5 24 -6 24 -2 0 4 16 7 35 7 19 0 35 -3 35
-7 0 -4 14 -3 30 2 17 5 30 5 30 2 0 -9 64 -7 79 3 6 3 11 1 11 -5 0 -6 5 -8
11 -5 13 9 79 12 79 5 0 -7 59 -5 66 3 4 3 15 2 25 -3 12 -7 20 -7 24 0 4 6
17 3 35 -10 l29 -21 12 22 c9 17 13 19 20 8 5 -8 9 -9 9 -4 0 6 5 3 10 -5 8
-12 13 -13 30 -2 24 15 54 16 45 2 -6 -9 54 -12 188 -10 42 0 54 0 95 0 24 0
42 -5 42 -12 0 -6 3 -8 7 -5 3 4 12 2 19 -4 9 -7 19 -7 34 1 11 6 26 7 33 3
16 -10 38 -10 59 -1 9 5 19 4 22 -1 3 -5 21 -5 40 -1 18 4 41 3 50 -2 11 -6
16 -5 16 3 0 8 4 8 13 1 8 -7 18 -7 27 -2 9 5 19 5 27 -2 10 -8 13 -7 13 3 0
10 3 10 12 1 7 -7 17 -8 29 -2 11 6 20 6 24 1 3 -6 17 -6 33 -1 16 4 36 4 45
-2 11 -5 24 -5 37 2 11 6 26 7 33 3 16 -10 38 -10 59 -1 9 5 19 4 22 -1 3 -5
21 -5 40 -1 18 4 41 3 50 -2 11 -6 16 -5 16 3 0 8 4 8 13 1 8 -7 18 -7 27 -2
9 5 19 5 27 -2 10 -8 13 -7 13 3 0 10 3 10 12 1 7 -7 17 -8 29 -2 11 6 20 6
24 1 3 -6 17 -6 33 -1 16 4 36 4 45 -2 11 -5 24 -5 37 2 11 6 26 7 33 3 16
-10 38 -10 59 -1 9 5 19 4 23 -1 3 -6 17 -6 34 -1 16 4 32 6 34 3 10 -9 42
-10 60 -1 12 6 23 6 30 -1 8 -6 18 -6 27 -1 9 5 19 5 27 -1 8 -7 18 -7 32 1
15 7 21 7 21 0 0 -7 6 -7 21 0 14 8 24 8 32 1 8 -6 18 -6 27 -1 9 5 19 5 27
-1 8 -7 18 -7 32 1 15 7 21 7 21 0 0 -7 6 -7 21 0 14 8 24 8 32 1 8 -6 18 -6
27 -1 9 5 19 5 27 -1 8 -7 18 -7 32 1 15 7 21 7 21 0 0 -7 6 -7 21 0 14 8 24
8 32 1 8 -6 18 -6 27 -1 9 5 19 5 27 -1 8 -7 18 -7 32 1 15 7 21 7 21 0 0 -7
6 -7 21 0 14 8 24 8 32 1 8 -6 18 -6 27 -1 9 5 19 5 27 -1 8 -7 18 -7 32 1 15
7 21 7 21 0 0 -7 6 -7 21 0 14 8 24 8 32 1 8 -6 18 -6 27 -1 9 5 19 5 27 -1 8
-7 18 -7 32 1 15 7 21 7 21 0 0 -7 6 -7 21 0 14 8 24 8 32 1 8 -6 18 -6 27 -1
9 5 19 5 27 -1 8 -7 18 -7 32 1 15 7 21 7 21 0 0 -7 6 -7 21 0 14 8 24 8 32 1
8 -6 18 -6 27 -1 9 5 19 5 27 -1 8 -7 18 -7 32 1 15 7 21 7 21 0 0 -7 6 -7 21
0 14 8 24 8 32 1 8 -6 18 -6 27 -1 9 5 19 5 27 -1 8 -7 18 -7 32 1 15 7 21 7
21 0 0 -7 6 -7 21 0 14 8 24 8 32 1 8 -6 18 -6 27 -1 9 5 19 5 27 -1 8 -7 18
-7 32 1 15 7 21 7 21 0 0 -7 6 -7 21 0 14 8 24 8 32 1 8 -6 18 -6 27 -1 9 5
19 5 27 -1 8 -7 18 -7 32 1 15 7 21 7 21 0 0 -7 6 -7 21 0 14 8 24 8 32 1 8
-6 18 -6 27 -1 9 5 19 5 27 -1 8 -7 18 -7 32 1 15 7 21 7 21 0 0 -7 6 -7 21 0
14 8 24 8 32 1 8 -6 18 -6 27 -1 9 5 19 5 27 -1 8 -7 18 -7 32 1 15 7 21 7 21
0 0 -7 6 -7 21 0 14 8 24 8 32 1 8 -6 18 -6 27 -1 9 5 19 5 27 -1 8 -7 18 -7
32 1 15 7 21 7 21 0 0 -7 6 -7 21 0 14 8 24 8 32 1 8 -6 18 -6 27 -1 9 5 19 5
27 -1 8 -7 18 -7 32 1 15 7 21 7 21 0 0 -8 6 -8 20 0 11 6 26 7 33 3 16 -10
38 -10 58 -1 9 4 19 4 23 1 9 -10 36 -13 36 -4 0 9 42 7 58 -3 17 -10 15 -39
-2 -33 -9 4 -19 -5 -26 -23 -7 -18 -17 -27 -26 -23 -13 5 -19 -12 -15 -44 1
-7 -8 -17 -19 -23 -11 -6 -18 -15 -15 -20 6 -10 -35 -41 -46 -34 -4 2 -4 -9 1
-24 9 -32 -1 -58 -18 -48 -10 6 -28 -30 -24 -45 1 -4 -8 -5 -18 -2 -15 4 -20
0 -20 -16 0 -15 -6 -21 -21 -21 -11 0 -17 -4 -14 -10 3 -5 2 -10 -4 -10 -6 0
-8 -7 -4 -16 3 -9 -3 -21 -16 -31 -12 -8 -20 -21 -17 -29 4 -11 -28 -31 -45
-27 -3 1 -5 -8 -5 -20 1 -17 -4 -21 -21 -19 -20 3 -21 0 -14 -26 10 -32 0 -59
-17 -48 -9 5 -28 -29 -25 -45 1 -3 -8 -5 -20 -5 -15 1 -21 -4 -19 -16 1 -9 -6
-23 -17 -30 -12 -8 -21 -28 -23 -45 -2 -23 -6 -29 -20 -25 -13 3 -18 -1 -18
-18 0 -13 -5 -20 -12 -17 -14 4 -48 -44 -48 -68 0 -8 -5 -15 -11 -15 -7 0 -9
-9 -6 -21 5 -17 2 -20 -13 -16 -23 6 -48 -18 -28 -26 8 -3 5 -8 -9 -13 -24
-10 -73 -70 -73 -91 0 -7 -9 -17 -21 -24 -14 -7 -19 -17 -16 -31 5 -16 2 -19
-14 -15 -10 3 -19 1 -19 -4 0 -4 -14 -23 -32 -41 -18 -18 -26 -34 -20 -36 8
-2 9 -9 2 -21 -5 -10 -7 -20 -5 -23 3 -3 -5 -4 -18 -4 -15 1 -21 -4 -19 -15 1
-9 -5 -19 -13 -23 -11 -4 -14 -2 -9 6 4 7 3 8 -4 4 -7 -4 -12 -14 -12 -22 0
-20 -25 -45 -35 -36 -5 4 -6 3 -3 -3 9 -16 -11 -57 -23 -49 -8 4 -9 3 -5 -4 4
-7 3 -12 -2 -12 -6 0 -13 -11 -16 -24 -5 -19 -11 -23 -28 -19 -19 5 -21 3 -10
-8 10 -11 7 -17 -14 -36 -16 -13 -24 -28 -21 -38 4 -8 2 -15 -4 -15 -6 0 -7
-5 -3 -12 5 -7 0 -9 -14 -6 -12 3 -21 3 -20 -1 1 -3 -1 -16 -5 -27 -5 -15 -14
-20 -26 -17 -15 4 -18 0 -14 -20 3 -17 -2 -32 -16 -46 -12 -12 -21 -25 -21
-31 0 -13 -36 -31 -44 -22 -4 3 -3 -5 2 -18 11 -32 4 -63 -12 -57 -7 3 -20 -3
-29 -13 -27 -32 -47 -66 -42 -72 3 -2 -5 -4 -18 -4 -15 1 -21 -4 -19 -15 1 -9
-5 -19 -13 -23 -11 -4 -14 -2 -9 6 4 7 3 8 -4 4 -7 -4 -12 -28 -12 -53 0 -39
-2 -44 -15 -33 -12 10 -16 8 -25 -15 -6 -16 -28 -45 -50 -66 -27 -26 -37 -43
-33 -57 3 -14 -2 -21 -20 -26 -19 -4 -24 -11 -20 -25 3 -11 -4 -28 -16 -40
-12 -12 -21 -28 -21 -36 0 -8 -5 -14 -12 -13 -6 2 -18 -10 -26 -26 -10 -20
-17 -25 -22 -16 -10 17 -29 -16 -23 -40 3 -10 -6 -23 -22 -34 -21 -14 -24 -20
-14 -32 6 -8 8 -14 3 -15 -5 -1 -18 -2 -29 -3 -13 0 -19 -7 -17 -17 1 -9 -5
-19 -13 -23 -11 -4 -14 -2 -9 6 4 6 3 8 -3 5 -16 -10 -23 -47 -10 -47 7 -1 1
-10 -13 -21 -14 -12 -25 -26 -25 -33 0 -6 -10 -15 -22 -21 -27 -12 -30 -25 -5
-25 16 -1 16 -1 0 -14 -10 -7 -18 -21 -18 -31 0 -11 -5 -15 -14 -12 -8 3 -20
0 -26 -8 -8 -10 -8 -14 2 -18 8 -3 2 -9 -14 -16 -26 -10 -33 -21 -29 -45 1 -4
-7 -16 -19 -26 -11 -9 -20 -25 -20 -34 0 -11 -7 -16 -17 -14 -12 2 -18 -3 -18
-17 0 -14 -9 -22 -30 -26 -17 -4 -25 -7 -20 -8 6 0 10 -12 10 -25 0 -13 -3
-23 -6 -21 -10 7 -39 -35 -40 -58 0 -12 -3 -17 -5 -10 -9 20 -34 2 -34 -24 0
-20 -3 -23 -14 -14 -10 9 -16 8 -26 -4 -10 -12 -10 -15 4 -15 9 0 16 -4 16
-10 0 -5 -5 -10 -11 -10 -6 0 -9 -9 -6 -20 3 -11 1 -18 -3 -15 -5 3 -12 0 -16
-6 -4 -8 -9 -7 -15 2 -6 10 -9 6 -9 -13 0 -18 -5 -28 -15 -28 -8 0 -19 -9 -25
-19 -5 -11 -17 -27 -26 -36 -9 -9 -16 -27 -16 -41 0 -13 -4 -27 -9 -30 -5 -3
-9 0 -9 6 0 6 -5 8 -11 5 -6 -4 -8 -13 -5 -20 5 -13 -15 -27 -50 -34 -4 0 -1
-7 5 -15 10 -11 6 -20 -16 -43 -17 -17 -27 -37 -24 -48 3 -16 1 -17 -11 -7
-17 14 -28 6 -28 -21 0 -13 -5 -17 -15 -14 -17 7 -30 -9 -16 -18 6 -3 8 -12 5
-20 -4 -8 -10 -13 -14 -10 -5 3 -6 -4 -3 -15 4 -15 0 -20 -16 -20 -16 0 -21
-6 -22 -27 0 -16 -3 -23 -6 -16 -3 9 -9 10 -23 1 -13 -9 -16 -18 -10 -38 6
-20 3 -29 -10 -38 -14 -9 -20 -8 -23 1 -3 7 -6 -2 -6 -19 -1 -25 -5 -30 -23
-30 -19 1 -22 -4 -20 -24 4 -21 2 -22 -12 -11 -9 7 -17 12 -17 10 -3 -9 -10
-56 -10 -71 0 -10 -7 -18 -15 -18 -8 0 -17 -7 -21 -16 -3 -8 -17 -20 -32 -25
-20 -8 -22 -12 -11 -19 12 -7 8 -12 -16 -20 -30 -10 -37 -30 -21 -56 8 -14 -1
-24 -25 -24 -12 0 -18 -7 -18 -21 0 -11 -4 -18 -9 -14 -5 3 -12 1 -16 -5 -4
-6 -10 -8 -15 -5 -5 3 -5 -7 0 -23 9 -32 -1 -58 -18 -48 -9 5 -28 -29 -25 -45
1 -3 -8 -5 -20 -5 -16 1 -21 -4 -19 -18 3 -13 -1 -17 -12 -13 -16 6 -32 -25
-21 -43 3 -5 2 -10 -4 -10 -6 0 -8 -7 -4 -16 4 -11 1 -15 -13 -12 -14 2 -19
-3 -18 -19 0 -19 -5 -23 -30 -23 -19 0 -26 -3 -19 -8 16 -10 -17 -78 -36 -74
-7 1 -9 -2 -6 -8 4 -6 -5 -22 -20 -36 -14 -13 -24 -28 -21 -33 4 -5 -3 -7 -14
-4 -20 5 -26 -10 -21 -59 1 -10 -4 -18 -12 -18 -22 0 -41 -27 -25 -33 7 -3 -3
-6 -22 -6 -21 -1 -30 -4 -23 -9 15 -9 -9 -62 -34 -76 -12 -7 -13 -10 -2 -17
10 -6 7 -10 -12 -18 -15 -5 -29 -17 -32 -25 -4 -9 -13 -16 -21 -16 -7 0 -16
-9 -19 -20 -3 -12 -1 -18 5 -14 6 4 6 -1 -1 -14 -6 -11 -18 -22 -26 -26 -9 -3
-13 -10 -10 -16 3 -5 1 -10 -5 -10 -6 0 -8 -4 -5 -10 3 -5 -3 -10 -14 -10 -14
0 -21 -6 -21 -20 0 -13 -7 -20 -19 -20 -10 0 -21 -7 -25 -15 -3 -8 -1 -15 3
-15 14 0 0 -41 -16 -47 -8 -3 -19 -17 -24 -30 -8 -21 -12 -23 -24 -13 -13 10
-15 9 -15 -9 0 -25 -21 -51 -41 -51 -9 0 -10 -3 -2 -11 14 -14 4 -52 -12 -45
-7 2 -17 -6 -24 -20 -6 -14 -19 -24 -31 -24 -17 0 -19 -3 -10 -19 8 -16 5 -25
-15 -45 -14 -14 -24 -31 -23 -38 2 -8 -6 -13 -19 -12 -19 0 -23 -5 -23 -30 0
-21 -3 -27 -9 -17 -6 9 -11 10 -15 2 -4 -6 -11 -9 -15 -6 -5 2 -6 -6 -4 -19 3
-16 -2 -31 -16 -45 -12 -12 -21 -25 -21 -31 0 -13 -36 -31 -44 -22 -4 3 -4 -1
-1 -10 4 -11 -3 -27 -19 -44 -19 -21 -22 -31 -14 -41 6 -7 8 -14 4 -14 -36 -7
-55 -21 -49 -35 5 -13 -7 -18 -34 -15 -8 1 -9 -7 -3 -27 9 -33 0 -55 -21 -50
-8 2 -14 -5 -14 -17 0 -14 -9 -22 -30 -26 -17 -4 -24 -7 -16 -8 21 -2 -7 -31
-31 -31 -15 0 -17 -3 -8 -19 7 -14 7 -22 -1 -27 -8 -4 -7 -9 2 -15 11 -6 10
-9 -4 -13 -9 -4 -25 -8 -34 -12 -15 -4 -15 -6 -3 -14 12 -7 10 -10 -7 -17 -24
-9 -73 -69 -73 -90 0 -7 -9 -17 -21 -24 -14 -7 -19 -17 -16 -31 5 -17 2 -19
-19 -15 -14 2 -22 2 -20 -1 3 -2 1 -13 -4 -23 -7 -11 -7 -20 0 -24 14 -8 0
-37 -16 -31 -17 6 -39 -20 -24 -29 17 -10 2 -24 -20 -18 -15 4 -20 0 -20 -14
0 -10 -9 -25 -20 -33 -11 -8 -20 -25 -20 -37 0 -13 -10 -28 -22 -35 -13 -7
-23 -20 -23 -28 0 -10 -8 -14 -22 -12 -20 3 -21 0 -14 -26 8 -25 5 -30 -21
-41 -21 -10 -26 -16 -18 -25 12 -16 3 -26 -23 -26 -12 0 -17 -5 -14 -14 3 -8
-5 -18 -20 -25 -18 -8 -24 -17 -20 -31 3 -11 1 -20 -4 -20 -4 0 -6 -7 -2 -16
4 -11 1 -15 -13 -12 -13 2 -20 -4 -22 -19 -2 -15 -10 -23 -23 -23 -16 0 -20
-6 -17 -23 3 -23 -21 -57 -40 -57 -6 0 -8 -9 -5 -20 4 -16 0 -20 -23 -21 -16
0 -24 -3 -17 -5 15 -7 5 -34 -12 -34 -16 0 -25 -12 -30 -42 -3 -13 -12 -28
-20 -34 -8 -6 -15 -16 -15 -22 0 -6 -9 -16 -20 -22 -11 -6 -20 -18 -20 -26 0
-10 -6 -14 -14 -11 -20 8 -40 -41 -25 -59 9 -11 6 -16 -15 -24 -14 -5 -26 -14
-26 -20 0 -6 -11 -15 -24 -21 -16 -7 -22 -17 -19 -29 5 -18 -30 -63 -40 -53
-3 3 -3 -4 0 -16 4 -14 1 -21 -10 -21 -21 0 -42 -27 -25 -33 7 -3 0 -6 -15 -6
-16 -1 -26 -5 -22 -10 3 -5 1 -12 -5 -16 -7 -4 -7 -12 0 -25 8 -15 5 -20 -20
-29 -17 -5 -30 -13 -30 -16 0 -3 4 -3 10 0 6 3 7 -1 4 -10 -4 -9 -12 -14 -20
-11 -19 7 -36 -18 -22 -32 9 -9 8 -12 -5 -12 -10 0 -17 -8 -17 -19 0 -10 -7
-22 -16 -25 -14 -5 -14 -9 -3 -22 12 -14 11 -16 -6 -12 -14 2 -26 -5 -37 -24
-10 -16 -21 -28 -25 -27 -20 3 -24 -2 -14 -15 9 -11 8 -18 -6 -33 -11 -10 -27
-31 -36 -46 -10 -15 -22 -25 -27 -22 -6 4 -10 -3 -10 -14 0 -14 -6 -21 -19
-21 -23 0 -36 -16 -21 -25 8 -5 7 -11 -1 -21 -8 -10 -8 -14 -1 -14 6 0 9 -7 6
-15 -5 -12 -10 -13 -20 -4 -10 9 -15 8 -18 -2 -15 -51 -17 -53 -25 -40 -7 11
-11 10 -19 -5 -5 -11 -7 -25 -5 -31 5 -15 -20 -43 -38 -43 -8 0 -9 -3 0 -13
13 -16 5 -27 -21 -27 -12 0 -18 -6 -16 -17 2 -12 -3 -18 -15 -18 -22 0 -36
-21 -30 -44 3 -11 -5 -24 -22 -35 -20 -13 -24 -21 -16 -30 14 -17 1 -29 -16
-15 -7 6 -14 8 -15 3 0 -5 -2 -13 -3 -19 -2 -5 -3 -15 -4 -21 -2 -16 -67 -84
-81 -84 -9 0 -10 -3 -1 -13 14 -18 4 -27 -28 -27 -18 0 -22 -3 -14 -11 14 -14
6 -37 -22 -64 -12 -11 -20 -26 -18 -32 3 -8 -5 -13 -22 -13 -22 0 -25 -3 -16
-13 14 -17 4 -27 -27 -27 -20 0 -22 -3 -13 -14 9 -10 9 -16 1 -21 -8 -5 -8
-11 -1 -19 13 -16 4 -26 -21 -26 -12 0 -18 -6 -16 -17 2 -12 -4 -18 -17 -18
-15 0 -20 -7 -21 -27 -1 -30 -20 -58 -39 -58 -6 0 -11 -10 -11 -22 1 -16 -4
-22 -15 -20 -9 1 -19 -5 -23 -13 -4 -11 -2 -14 6 -9 7 4 8 3 4 -4 -4 -7 -16
-12 -28 -12 -15 0 -19 -5 -15 -20 3 -11 1 -20 -3 -20 -4 0 -6 -9 -3 -20 4 -16
0 -20 -22 -20 -23 0 -26 -2 -15 -15 10 -12 8 -16 -11 -24 -13 -5 -27 -7 -30
-5 -3 2 -4 -9 -1 -24 4 -22 2 -25 -9 -15 -20 19 -40 -3 -29 -32 6 -16 4 -29
-5 -41 -10 -13 -14 -15 -15 -5 0 11 -3 11 -14 1 -8 -6 -12 -19 -9 -27 5 -12 2
-15 -10 -10 -17 6 -34 -24 -23 -42 3 -5 -6 -17 -19 -27 -14 -10 -25 -27 -25
-37 0 -13 -5 -17 -14 -14 -8 3 -20 0 -26 -8 -8 -10 -8 -14 2 -18 8 -3 2 -9
-14 -16 -26 -10 -33 -21 -29 -45 1 -4 -10 -18 -24 -30 -20 -18 -23 -24 -13
-35 11 -11 8 -13 -14 -9 -15 3 -26 2 -25 -1 4 -12 -27 -76 -43 -91 -9 -8 -25
-27 -34 -42 -10 -16 -25 -28 -33 -28 -10 0 -14 -7 -10 -20 3 -11 2 -18 -2 -16
-4 3 -17 -15 -29 -39 -12 -25 -29 -45 -37 -45 -8 0 -15 -7 -15 -14 0 -8 -11
-27 -25 -42 -17 -19 -22 -31 -15 -39 12 -14 3 -25 -21 -25 -10 0 -21 -5 -25
-12 -4 -7 -3 -8 4 -4 8 5 10 1 6 -9 -4 -9 -13 -14 -20 -11 -8 3 -18 -4 -24
-14 -8 -14 -8 -20 0 -20 6 0 9 -4 6 -9 -3 -5 -15 -7 -26 -4 -20 5 -26 -10 -21
-59 1 -10 -4 -18 -13 -18 -8 0 -20 -9 -26 -20 -6 -11 -20 -20 -31 -20 -16 0
-18 -4 -11 -17 13 -25 4 -43 -20 -43 -14 0 -19 -6 -17 -22 5 -32 -9 -52 -26
-38 -8 7 -15 7 -19 1 -4 -5 -2 -12 3 -16 6 -3 -3 -18 -18 -34 -22 -22 -27 -36
-24 -58 3 -17 1 -23 -4 -16 -5 8 -14 9 -23 3 -8 -5 -11 -12 -7 -16 4 -4 2 -13
-4 -21 -9 -10 -15 -10 -25 -2 -11 9 -14 7 -15 -7 -1 -11 -1 -25 0 -32 2 -16
-24 -43 -34 -34 -4 4 -6 3 -5 -3 1 -5 2 -21 1 -34 -1 -18 -4 -21 -14 -12 -16
13 -27 5 -27 -21 0 -10 -5 -17 -12 -16 -7 2 -17 -7 -23 -19 -5 -13 -16 -23
-24 -23 -12 0 -12 -3 -3 -12 10 -10 8 -16 -10 -31 -13 -10 -18 -16 -11 -13 7
4 9 -1 6 -14 -4 -15 -9 -18 -18 -10 -14 12 -25 3 -25 -21 0 -10 -9 -23 -19
-29 -11 -5 -21 -22 -23 -37 -2 -18 -9 -28 -18 -27 -9 1 -17 -8 -17 -19 -2 -24
-23 -49 -23 -27 0 11 -3 11 -12 2 -10 -10 -10 -15 2 -22 13 -9 13 -11 1 -19
-8 -5 -11 -16 -8 -26 4 -9 3 -13 -2 -10 -5 3 -13 0 -17 -6 -4 -8 -9 -7 -15 2
-6 10 -9 6 -9 -13 0 -18 -5 -28 -15 -28 -8 0 -19 -9 -25 -19 -5 -11 -17 -27
-26 -36 -9 -9 -17 -27 -17 -41 0 -13 -3 -27 -8 -30 -5 -3 -9 0 -9 6 0 6 -5 8
-11 5 -6 -4 -8 -13 -5 -20 5 -13 -15 -27 -50 -34 -4 0 -1 -7 5 -15 9 -11 7
-19 -14 -40 -14 -14 -25 -32 -25 -41 0 -10 -9 -15 -27 -15 -17 0 -23 -3 -16
-8 9 -6 7 -14 -10 -33 -22 -24 -29 -41 -30 -67 0 -8 -8 -11 -20 -8 -15 4 -18
0 -14 -14 3 -13 -2 -22 -17 -27 -11 -4 -24 -6 -27 -5 -3 0 -4 -10 -1 -23 3
-16 -3 -31 -20 -47 -13 -13 -22 -30 -21 -39 3 -11 -3 -15 -19 -15 -19 1 -22
-3 -20 -24 4 -21 2 -22 -12 -11 -9 7 -17 12 -17 10 -3 -9 -10 -56 -10 -72 0
-9 -7 -17 -14 -17 -17 0 -38 -34 -27 -44 3 -4 -1 -4 -10 -1 -19 8 -71 -33 -64
-51 2 -6 -6 -16 -18 -22 -37 -17 -39 -59 -6 -92 16 -16 26 -31 22 -35 -3 -3 0
-4 8 0 24 8 120 12 125 5 5 -8 61 -4 75 5 5 3 11 1 15 -5 4 -6 12 -7 24 -1 9
5 23 6 30 2 7 -5 30 -5 51 -1 21 4 45 3 54 -2 11 -6 16 -5 16 3 0 8 4 8 13 1
8 -7 18 -7 27 -2 9 5 19 5 27 -1 8 -7 18 -7 33 1 11 6 26 7 33 3 16 -10 38
-10 59 -1 9 5 20 4 23 -2 4 -6 13 -7 24 -1 9 5 23 6 30 2 7 -5 28 -5 46 -1 18
4 38 4 45 0 6 -4 29 -4 50 0 21 4 45 3 54 -2 10 -5 24 -5 37 2 14 8 24 8 32 1
8 -6 18 -6 27 -1 9 5 19 5 27 -1 8 -7 18 -7 32 1 15 7 21 7 21 0 0 -7 6 -7 21
0 14 8 24 8 32 1 8 -6 18 -6 27 -1 9 5 19 5 27 -1 7 -6 19 -7 30 -2 10 5 29 8
43 6 33 -5 93 -3 98 2 3 2 13 0 23 -6 14 -7 19 -6 19 2 0 8 4 8 13 1 8 -7 18
-7 27 -2 9 5 19 5 27 -1 8 -7 18 -7 33 1 11 6 26 7 33 3 16 -10 38 -10 59 -1
9 5 20 4 23 -2 4 -6 13 -7 24 -1 9 5 23 6 30 2 7 -5 28 -5 46 -1 18 4 38 4 45
0 6 -4 29 -4 50 0 21 4 45 3 54 -2 11 -6 16 -5 16 3 0 8 4 8 13 1 8 -7 18 -7
27 -2 9 5 19 5 27 -1 8 -7 19 -7 33 1 14 8 25 8 33 1 8 -6 18 -6 27 -1 9 5 19
5 27 -1 8 -7 19 -7 33 1 14 8 25 8 33 1 8 -6 18 -6 27 -1 9 5 19 5 27 -2 9 -7
13 -7 13 2 0 9 4 9 13 2 8 -7 18 -7 27 -2 9 5 19 5 27 -1 8 -7 19 -7 33 1 14
8 25 8 33 1 8 -6 18 -6 27 -1 9 5 19 5 27 -1 8 -7 19 -7 33 1 14 8 25 8 33 1
8 -6 18 -6 27 -1 9 5 19 5 27 -2 9 -7 13 -7 13 2 0 9 4 9 13 2 8 -7 18 -7 27
-2 9 5 19 5 27 -1 8 -7 19 -7 33 1 14 8 25 8 33 1 8 -6 18 -6 27 -1 9 5 19 5
27 -1 8 -7 19 -7 33 1 14 8 25 8 33 1 8 -6 18 -6 27 -1 9 5 19 5 27 -2 9 -7
13 -7 13 2 0 9 4 9 13 2 8 -7 18 -7 27 -2 9 5 19 5 27 -1 8 -7 19 -7 33 1 14
8 25 8 33 1 8 -6 18 -6 27 -1 9 5 19 5 27 -1 8 -7 19 -7 33 1 14 8 25 8 33 1
8 -6 18 -6 27 -1 9 5 19 5 27 -1 8 -7 19 -7 33 1 14 8 25 8 33 1 8 -6 18 -6
27 -1 9 5 19 5 27 -1 8 -7 18 -7 32 1 15 7 21 7 21 0 0 -7 6 -7 21 0 14 8 24
8 32 1 8 -6 18 -6 27 -1 9 5 19 5 27 -1 7 -6 19 -7 30 -2 10 5 29 8 43 6 33
-5 93 -3 98 2 3 2 13 0 23 -6 14 -7 19 -6 19 2 0 8 4 8 13 1 8 -7 18 -7 27 -2
9 5 19 5 27 -1 8 -7 18 -7 33 1 11 6 26 7 33 3 16 -10 38 -10 59 -1 9 5 20 4
23 -2 4 -6 13 -7 24 -1 9 5 23 6 30 2 7 -5 28 -5 46 -1 18 4 38 4 45 0 6 -4
29 -4 50 0 21 4 45 3 54 -2 10 -5 24 -5 37 2 14 8 24 8 32 1 8 -6 18 -6 27 -1
9 5 19 5 27 -1 8 -7 18 -7 32 1 15 7 21 7 21 0 0 -7 6 -7 21 0 14 8 24 8 32 1
8 -6 18 -6 27 -1 9 5 19 5 27 -1 8 -7 18 -7 32 1 15 7 21 7 21 0 0 -7 6 -7 21
0 14 8 24 8 32 1 8 -6 18 -6 27 -1 9 5 19 5 27 -1 8 -7 18 -7 32 1 15 7 21 7
21 0 0 -7 6 -7 21 0 14 8 24 8 32 1 8 -6 18 -6 27 -1 9 5 19 5 27 -1 7 -6 19
-7 30 -2 10 5 29 8 43 6 33 -5 93 -3 98 2 3 2 13 0 23 -6 14 -7 19 -6 19 2 0
8 4 8 13 1 8 -7 18 -7 27 -2 9 5 19 5 27 -1 8 -7 18 -7 33 1 11 6 26 7 33 3
16 -10 38 -10 59 -1 9 5 20 4 23 -2 4 -6 13 -7 24 -1 9 5 23 6 30 2 7 -5 28
-5 46 -1 18 4 38 4 45 0 6 -4 29 -4 50 0 21 4 45 3 54 -2 10 -5 24 -5 37 2 14
8 24 8 32 1 8 -6 18 -6 27 -1 9 5 19 5 27 -1 8 -7 18 -7 32 1 15 7 21 7 21 0
0 -7 6 -7 21 0 14 8 24 8 32 1 8 -6 18 -6 27 -1 9 5 19 5 27 -1 7 -6 19 -7 30
-2 10 5 29 8 43 6 33 -5 93 -3 98 2 3 2 13 0 23 -6 14 -7 19 -6 19 2 0 8 4 8
13 1 8 -7 18 -7 27 -2 9 5 19 5 27 -1 8 -7 18 -7 33 1 11 6 26 7 33 3 16 -10
38 -10 59 -1 9 5 20 4 23 -2 4 -6 13 -7 24 -1 9 5 23 6 30 2 7 -5 28 -5 46 -1
18 4 38 4 45 0 6 -4 29 -4 50 0 21 4 45 3 54 -2 10 -5 24 -5 37 2 14 8 24 8
32 1 8 -6 18 -6 27 -1 9 5 19 5 27 -1 8 -7 18 -7 32 1 15 7 21 7 21 0 0 -7 6
-7 21 0 14 8 24 8 32 1 8 -6 18 -6 27 -1 9 5 19 5 27 -1 7 -6 19 -7 30 -2 10
5 29 8 43 6 33 -5 93 -3 98 2 3 2 13 0 23 -6 14 -7 19 -6 19 2 0 8 4 8 13 1 8
-7 18 -7 27 -2 9 5 19 5 27 -1 8 -7 18 -7 33 1 11 6 26 7 33 3 16 -10 38 -10
59 -1 9 5 20 4 23 -2 4 -6 13 -7 24 -1 9 5 23 6 30 2 7 -5 28 -5 46 -1 18 4
38 4 45 0 6 -4 29 -4 50 0 21 4 45 3 54 -2 10 -5 24 -5 37 2 14 8 24 8 32 1 8
-6 18 -6 27 -1 9 5 19 5 27 -1 8 -7 18 -7 32 1 15 7 21 7 21 0 0 -7 6 -7 21 0
14 8 24 8 32 1 8 -6 18 -6 27 -1 9 5 19 5 27 -1 7 -6 19 -7 30 -2 10 5 29 8
43 6 33 -5 93 -3 98 2 3 2 13 0 23 -6 14 -7 19 -6 19 2 0 8 4 8 13 1 8 -7 18
-7 27 -2 9 5 19 5 27 -1 8 -7 18 -7 33 1 11 6 26 7 33 3 16 -10 38 -10 59 -1
9 5 20 4 23 -2 4 -6 13 -7 24 -1 9 5 23 6 30 2 7 -5 28 -5 46 -1 18 4 38 4 45
0 6 -4 29 -4 50 0 21 4 44 4 51 -1 7 -4 20 -4 29 1 9 5 22 5 29 1 7 -5 30 -5
51 -1 21 4 45 3 54 -2 11 -6 16 -5 16 3 0 8 4 8 13 1 8 -7 18 -7 27 -2 9 5 19
5 27 -1 8 -7 18 -7 33 1 11 6 26 7 33 3 16 -10 38 -10 59 -1 9 5 20 4 23 -2 4
-6 13 -7 24 -1 9 5 23 6 30 2 7 -5 28 -5 46 -1 18 4 38 4 45 0 6 -4 29 -4 50
0 21 4 45 3 54 -2 10 -5 24 -5 37 2 14 8 24 8 32 1 8 -6 18 -6 27 -1 9 5 19 5
27 -1 8 -7 18 -7 32 1 15 7 21 7 21 0 0 -7 6 -7 21 0 14 8 24 8 32 1 8 -6 18
-6 27 -1 9 5 19 5 27 -1 7 -6 19 -7 30 -2 10 5 29 8 43 6 33 -5 93 -3 98 2 3
2 13 0 23 -6 14 -7 19 -6 19 2 0 8 4 8 13 1 8 -7 18 -7 27 -2 9 5 19 5 27 -1
8 -7 18 -7 33 1 11 6 26 7 33 3 16 -10 38 -10 59 -1 9 5 20 4 23 -2 4 -6 13
-7 24 -1 9 5 23 6 30 2 7 -5 28 -5 46 -1 18 4 38 4 45 0 6 -4 29 -4 50 0 21 4
45 3 54 -2 10 -5 24 -5 37 2 14 8 24 8 32 1 8 -6 18 -6 27 -1 9 5 19 5 27 -1
8 -7 18 -7 32 1 15 7 21 7 21 0 0 -7 6 -7 21 0 14 8 24 8 32 1 8 -6 18 -6 27
-1 9 5 19 5 27 -1 7 -6 19 -7 30 -2 10 5 29 8 43 6 33 -5 93 -3 98 2 3 2 13 0
23 -6 14 -7 19 -6 19 2 0 8 4 8 13 1 8 -7 18 -7 27 -2 9 5 19 5 27 -1 8 -7 18
-7 33 1 11 6 26 7 33 3 16 -10 38 -10 59 -1 9 5 20 4 23 -2 4 -6 13 -7 24 -1
9 5 23 6 30 2 7 -5 28 -5 46 -1 18 4 38 4 45 0 6 -4 29 -4 50 0 21 4 45 3 54
-2 10 -5 24 -5 37 2 14 8 24 8 32 1 8 -6 18 -6 27 -1 9 5 19 5 27 -1 8 -7 18
-7 32 1 15 7 21 7 21 0 0 -7 6 -7 21 0 14 8 24 8 32 1 8 -6 18 -6 27 -1 9 5
19 5 27 -1 7 -6 19 -7 30 -2 10 5 29 8 43 6 33 -5 93 -3 98 2 3 2 13 0 23 -6
14 -7 19 -6 19 2 0 8 4 8 13 1 8 -7 18 -7 27 -2 9 5 19 5 27 -1 8 -7 18 -7 33
1 11 6 26 7 33 3 16 -10 38 -10 59 -1 9 5 20 4 23 -2 4 -6 13 -7 24 -1 9 5 23
6 30 2 7 -5 28 -5 46 -1 18 4 38 4 45 0 6 -4 29 -4 50 0 21 4 45 3 54 -2 10
-5 24 -5 37 2 14 8 24 8 32 1 8 -6 18 -6 27 -1 9 5 19 5 27 -1 8 -7 18 -7 32
1 15 7 21 7 21 0 0 -7 6 -7 21 0 14 8 24 8 32 1 8 -6 18 -6 27 -1 9 5 19 5 27
-1 8 -7 18 -7 32 1 15 7 21 7 21 0 0 -7 6 -7 21 0 14 8 24 8 32 1 8 -6 18 -6
27 -1 9 5 19 5 27 -1 8 -7 18 -7 32 1 15 7 21 7 21 0 0 -7 6 -7 21 0 14 8 24
8 32 1 8 -6 18 -6 27 -1 9 5 19 5 27 -1 16 -14 49 4 56 31 3 11 1 20 -5 20 -5
0 -6 4 -3 10 8 13 12 90 5 90 -4 0 -4 23 0 50 4 28 3 50 -1 50 -4 0 -4 14 1
30 5 19 5 28 -1 25 -5 -4 -5 4 1 19 6 17 6 26 -1 26 -6 0 -6 7 1 20 7 13 7 20
1 20 -7 0 -7 9 -1 25 6 16 6 25 0 25 -6 0 -6 9 0 25 5 14 6 25 2 25 -4 0 -7
14 -7 30 0 17 3 30 7 30 4 0 3 11 -2 25 -6 16 -6 25 0 25 6 0 6 10 0 26 -6 14
-7 23 -2 21 9 -6 8 45 -2 61 -3 6 -2 13 4 17 7 4 7 12 0 25 -7 13 -7 21 0 25
6 4 7 13 2 22 -5 8 -6 33 -2 54 4 21 4 39 -1 39 -4 0 -4 14 1 30 5 19 5 28 -1
25 -5 -4 -5 4 1 19 6 17 6 26 -1 26 -6 0 -6 7 1 20 7 13 7 20 1 20 -7 0 -7 9
-1 25 6 16 6 25 0 25 -6 0 -6 9 0 25 5 14 6 25 2 25 -4 0 -7 14 -7 30 0 17 3
30 7 30 4 0 3 11 -2 25 -6 16 -6 25 0 25 6 0 6 10 0 26 -6 14 -7 23 -2 21 9
-6 8 45 -2 61 -3 6 -2 13 4 17 7 4 7 12 0 25 -7 13 -7 21 0 25 6 4 7 13 2 22
-5 8 -6 33 -2 54 4 21 4 39 -1 39 -4 0 -4 14 1 30 5 19 5 28 -1 25 -5 -4 -5 4
1 19 6 17 6 26 -1 26 -6 0 -6 7 1 20 7 13 7 20 1 20 -7 0 -7 9 -1 25 6 16 6
25 0 25 -6 0 -6 9 0 25 6 16 6 25 -1 25 -6 0 -6 6 0 18 7 13 7 22 0 29 -8 8
-7 13 0 17 8 5 8 13 1 26 -7 13 -7 21 0 25 7 4 7 12 0 25 -6 10 -7 21 -2 24 6
4 8 56 2 64 -2 1 -3 6 -4 11 -2 15 -16 26 -16 12 0 -8 -5 -9 -19 -1 -14 7 -22
7 -26 0 -5 -8 -11 -7 -21 1 -11 9 -14 9 -14 0 0 -9 -5 -9 -20 -1 -11 6 -20 7
-20 3 0 -4 -36 -6 -80 -3 -44 3 -80 1 -80 -3 0 -4 -9 -3 -20 3 -11 6 -20 7
-20 3 0 -4 -36 -6 -80 -3 -44 3 -80 1 -80 -3 0 -4 -9 -3 -19 3 -14 7 -22 7
-26 0 -5 -8 -11 -7 -21 1 -11 9 -14 9 -14 0 0 -9 -5 -9 -20 -1 -11 6 -20 7
-20 3 0 -4 -36 -6 -80 -3 -44 3 -80 1 -80 -3 0 -4 -9 -3 -20 3 -11 6 -20 7
-20 3 0 -14 -144 -9 -153 5 -5 7 -12 10 -17 7 -5 -3 -11 -1 -15 5 -4 7 -12 7
-25 0 -13 -7 -21 -7 -25 0 -5 7 -11 8 -19 1 -6 -6 -18 -6 -25 -2 -8 5 -27 5
-42 1 -16 -5 -29 -6 -29 -2 0 8 -53 8 -66 -1 -6 -3 -16 -2 -23 3 -8 4 -27 4
-42 0 -16 -5 -29 -6 -29 -2 0 8 -53 8 -66 -1 -6 -3 -16 -2 -24 3 -9 5 -19 5
-26 -1 -8 -7 -14 -6 -19 1 -4 7 -12 7 -26 0 -13 -8 -19 -7 -19 0 0 7 -6 8 -19
0 -13 -6 -22 -7 -26 0 -3 6 -15 6 -30 0 -15 -6 -27 -6 -30 0 -4 7 -13 6 -25 0
-13 -7 -21 -7 -25 0 -4 7 -13 7 -26 0 -10 -6 -19 -7 -19 -3 0 9 -63 8 -79 -1
-5 -4 -12 -2 -16 4 -4 6 -11 7 -17 4 -15 -10 -68 -11 -68 -2 0 4 -13 3 -30 -2
-16 -5 -30 -5 -30 -2 0 9 -64 7 -79 -3 -6 -3 -11 -1 -11 5 0 8 -6 7 -21 -1
-15 -7 -24 -8 -32 0 -6 6 -16 7 -28 1 -11 -7 -20 -7 -24 0 -4 7 -13 7 -26 0
-12 -7 -19 -7 -19 -1 0 6 -11 6 -30 1 -18 -5 -32 -5 -35 1 -4 5 -14 5 -25 -1
-13 -7 -21 -7 -25 0 -4 7 -13 7 -26 0 -10 -6 -19 -7 -19 -3 0 9 -63 8 -79 -1
-5 -4 -12 -2 -16 4 -4 6 -11 7 -17 4 -15 -10 -68 -11 -68 -2 0 4 -13 3 -30 -2
-16 -5 -30 -5 -30 -2 0 9 -64 7 -79 -3 -6 -3 -11 -1 -11 5 0 8 -6 7 -21 -1
-15 -7 -24 -8 -32 0 -6 6 -16 7 -28 1 -11 -7 -20 -7 -24 0 -4 7 -13 7 -26 0
-12 -7 -19 -7 -19 -1 0 6 -11 6 -30 1 -18 -5 -32 -5 -35 1 -4 5 -14 5 -25 -1
-13 -7 -21 -7 -25 0 -4 7 -13 7 -26 0 -10 -6 -19 -7 -19 -3 0 9 -63 8 -79 -1
-5 -4 -12 -2 -16 4 -4 6 -11 7 -17 4 -15 -10 -68 -11 -68 -2 0 4 -13 3 -30 -2
-16 -5 -30 -5 -30 -2 0 9 -64 7 -79 -3 -6 -3 -11 -1 -11 5 0 8 -6 7 -21 -1
-15 -7 -24 -8 -32 0 -6 6 -16 7 -28 1 -11 -7 -20 -7 -24 0 -4 7 -13 7 -26 0
-12 -7 -19 -7 -19 -1 0 6 -11 6 -30 1 -18 -5 -32 -5 -35 1 -4 5 -14 5 -25 -1
-13 -7 -21 -7 -25 0 -4 7 -13 7 -26 0 -10 -6 -19 -7 -19 -3 0 9 -63 8 -79 -1
-5 -4 -13 -2 -16 4 -5 8 -11 7 -21 -1 -11 -9 -17 -9 -29 1 -8 7 -15 9 -15 4 0
-5 -4 -3 -8 3 -9 14 -30 16 -100 11 -26 -2 -48 2 -54 9 -7 9 -15 10 -30 2 -11
-6 -33 -9 -49 -7 -16 3 -29 1 -29 -4 0 -5 -9 -4 -20 2 -14 8 -20 8 -20 0 0 -6
-5 -8 -10 -5 -6 4 -7 11 -4 17 5 7 0 9 -14 6 -12 -4 -25 -2 -28 3 -3 5 -13 5
-25 -1 -11 -6 -25 -7 -32 -3 -16 10 -38 10 -59 1 -9 -5 -19 -4 -22 1 -3 5 -21
5 -40 1 -18 -4 -41 -3 -50 2 -10 5 -23 5 -36 -2 -11 -6 -26 -7 -33 -3 -16 10
-38 10 -59 1 -9 -5 -19 -4 -22 1 -3 5 -21 5 -40 1 -18 -4 -41 -3 -50 2 -10 5
-23 5 -37 -2 -14 -8 -24 -8 -32 -1 -8 6 -18 6 -27 1 -9 -5 -19 -5 -27 1 -8 7
-18 7 -32 -1 -15 -7 -21 -7 -21 0 0 8 -6 8 -20 0 -11 -6 -26 -7 -33 -3 -16 10
-38 10 -59 1 -9 -5 -19 -4 -22 1 -3 5 -21 5 -40 1 -18 -4 -41 -3 -50 2 -10 5
-23 5 -36 -2 -11 -6 -26 -7 -33 -3 -16 10 -38 10 -59 1 -9 -5 -19 -4 -22 1 -3
5 -21 5 -40 1 -18 -4 -41 -3 -50 2 -10 5 -23 5 -37 -2 -14 -8 -24 -8 -32 -1
-8 6 -18 6 -27 1 -9 -5 -19 -5 -27 1 -8 7 -18 7 -32 -1 -15 -7 -21 -7 -21 0 0
8 -6 8 -20 0 -11 -6 -26 -7 -33 -3 -16 10 -38 10 -59 1 -9 -5 -19 -4 -22 1 -3
5 -21 5 -40 1 -18 -4 -41 -3 -50 2 -10 5 -23 5 -36 -2 -11 -6 -26 -7 -33 -3
-16 10 -38 10 -59 1 -9 -5 -19 -4 -22 1 -3 5 -21 5 -40 1 -18 -4 -41 -3 -50 2
-10 5 -23 5 -37 -2 -14 -8 -24 -8 -32 -1 -8 6 -18 6 -27 1 -9 -5 -19 -5 -27 1
-8 7 -18 7 -32 -1 -15 -7 -21 -7 -21 0 0 8 -6 8 -20 0 -11 -6 -26 -7 -33 -3
-16 10 -38 10 -59 1 -9 -5 -19 -4 -22 1 -3 5 -21 5 -40 1 -18 -4 -41 -3 -50 2
-10 5 -23 5 -36 -2 -11 -6 -26 -7 -33 -3 -16 10 -38 10 -59 1 -9 -5 -19 -4
-22 1 -3 5 -21 5 -40 1 -18 -4 -41 -3 -50 2 -10 5 -23 5 -37 -2 -14 -8 -24 -8
-32 -1 -8 6 -18 6 -27 1 -9 -5 -19 -5 -26 1 -6 5 -20 6 -30 2 -23 -9 -65 -9
-88 0 -9 4 -26 2 -37 -3 -11 -6 -25 -7 -32 -3 -16 10 -38 10 -59 1 -9 -5 -19
-4 -22 1 -3 5 -21 5 -40 1 -18 -4 -41 -3 -50 2 -10 5 -23 5 -36 -2 -11 -6 -26
-7 -33 -3 -16 10 -38 10 -59 1 -9 -5 -19 -4 -22 1 -3 5 -21 5 -40 1 -18 -4
-41 -3 -50 2 -10 5 -23 5 -36 -2 -11 -6 -26 -7 -33 -3 -16 10 -38 10 -59 1 -9
-5 -19 -4 -22 1 -3 5 -21 5 -40 1 -18 -4 -41 -3 -50 2 -10 5 -23 5 -36 -2 -11
-6 -26 -7 -33 -3 -16 10 -38 10 -59 1 -9 -5 -19 -4 -22 1 -3 5 -21 5 -40 1
-18 -4 -41 -3 -50 2 -10 5 -23 5 -36 -2 -11 -6 -26 -7 -33 -3 -16 10 -38 10
-59 1 -9 -5 -19 -4 -22 1 -3 5 -21 5 -40 1 -18 -4 -41 -3 -50 2 -11 6 -16 5
-16 -3 0 -8 -4 -8 -13 -1 -8 7 -18 7 -27 2 -9 -5 -19 -5 -27 2 -9 7 -13 7 -13
-2 0 -9 -4 -9 -13 -2 -8 7 -18 7 -27 2 -9 -5 -19 -5 -27 2 -9 7 -13 7 -13 -1
0 -7 -5 -9 -12 -5 -7 5 -29 7 -48 6 l-35 -3 25 20 c14 11 29 21 34 21 5 0 3 6
-3 13 -13 17 -5 27 22 27 13 0 17 5 13 15 -3 9 1 18 8 21 15 6 31 44 35 82 1
10 6 10 21 2 18 -10 20 -8 20 22 0 19 4 28 8 21 10 -17 24 -5 44 40 10 20 23
37 29 37 8 0 8 4 -1 15 -10 12 -9 16 6 21 34 13 47 26 32 35 -9 6 -4 9 15 9
25 0 31 8 28 37 -2 15 30 53 40 47 4 -2 5 5 2 16 -4 15 0 20 16 20 15 0 21 6
21 21 0 11 5 17 10 14 6 -3 10 -1 10 5 0 6 5 8 10 5 6 -3 10 4 10 18 0 13 9
33 21 46 13 13 18 29 14 39 -3 9 -3 13 1 10 10 -10 44 10 44 26 0 8 8 17 17
20 15 6 15 8 3 16 -12 8 -12 10 3 16 9 3 17 12 17 20 0 14 34 37 42 29 3 -3 4
5 4 18 -1 17 4 21 21 19 20 -3 21 0 14 26 -9 31 0 59 17 48 5 -3 15 0 21 8 9
11 9 15 -1 18 -7 3 0 11 17 19 22 10 29 21 27 36 -2 12 2 24 8 28 5 3 10 1 10
-5 0 -17 17 -3 23 20 3 12 1 18 -5 14 -6 -4 -6 2 1 14 7 13 17 18 30 15 16 -4
19 -1 14 16 -4 18 -1 21 23 21 20 0 25 3 17 11 -15 15 -5 47 18 60 11 5 19 18
19 29 0 23 16 35 23 18 5 -13 8 -7 22 38 4 13 8 14 19 5 10 -9 15 -8 19 3 4 9
3 18 -2 20 -4 3 -6 19 -3 36 3 24 7 28 18 19 11 -9 16 -6 24 15 8 23 20 30 41
28 4 -1 5 8 2 18 -4 16 0 20 23 21 16 0 24 3 19 5 -6 2 -9 20 -7 39 3 26 9 35
23 35 12 0 19 7 19 20 0 13 7 20 19 20 10 0 21 9 24 20 3 12 1 18 -5 14 -6 -4
-5 3 2 15 6 12 19 25 28 29 9 4 17 16 17 27 0 13 6 19 16 17 9 -1 19 5 23 13
4 11 2 14 -7 9 -6 -4 3 7 22 26 22 22 29 35 22 40 -14 8 0 22 34 34 16 6 17 9
5 16 -12 7 -11 10 5 16 24 8 54 43 55 62 0 7 7 21 16 29 11 11 12 18 4 23 -7
4 1 10 18 13 26 5 29 10 24 29 -5 20 -4 21 11 9 14 -11 18 -11 23 3 3 9 4 25
1 36 -3 11 -1 17 4 14 5 -3 12 2 15 10 3 9 12 16 19 16 8 0 11 8 8 20 -4 16 0
20 23 21 16 0 24 3 17 5 -15 7 -5 34 12 34 16 0 25 12 30 42 3 13 12 28 20 34
8 6 15 16 15 22 0 6 9 16 20 22 11 6 20 18 20 26 0 10 6 14 14 11 20 -8 40 41
25 59 -9 11 -6 16 15 24 14 5 26 14 26 20 0 6 11 15 23 21 18 8 23 17 19 35
-2 13 0 24 6 24 5 0 20 17 32 37 17 29 23 34 31 22 6 -10 9 -7 9 14 0 20 5 27
19 27 11 0 23 5 26 10 3 6 2 10 -3 10 -5 0 -8 10 -6 23 1 12 3 26 3 31 1 4 7
6 15 3 10 -4 18 5 26 26 8 24 13 28 19 18 7 -10 12 -7 23 15 8 16 19 28 25 27
6 -1 13 11 15 27 3 17 1 30 -4 30 -5 0 -6 5 -3 11 4 6 13 8 20 5 7 -2 17 6 24
20 6 14 19 24 31 24 18 0 19 3 9 21 -9 19 -7 25 17 46 16 14 28 32 26 40 -2
10 2 14 11 10 11 -4 19 4 27 26 8 25 13 29 20 17 9 -15 9 -17 25 36 3 9 1 12
-6 8 -8 -4 -7 0 0 15 7 11 21 21 33 21 16 0 18 3 9 13 -13 17 -5 27 22 27 13
0 17 5 13 15 -3 9 4 21 19 31 17 11 25 26 25 44 0 16 7 30 15 34 8 3 15 1 15
-5 0 -6 4 -8 9 -5 5 3 7 15 4 26 -4 16 0 20 17 20 17 0 21 5 17 19 -6 23 11
54 25 45 7 -4 8 -2 4 4 -4 7 -2 12 3 12 6 0 11 12 11 26 0 22 3 24 14 15 12
-10 18 -6 31 23 10 20 22 36 27 36 5 0 8 8 7 18 -3 33 1 44 15 39 8 -3 20 2
28 11 9 11 9 14 1 8 -9 -5 -11 -2 -7 9 4 8 11 15 18 14 31 -4 37 1 26 21 -11
20 -5 25 28 21 12 -2 15 9 12 46 -1 13 7 26 19 33 12 6 21 17 21 25 0 9 10 15
28 16 15 0 22 3 16 5 -16 7 -5 46 18 63 11 7 17 19 14 27 -3 7 4 16 15 19 11
4 25 19 30 33 8 21 12 23 19 12 8 -12 10 -12 15 2 4 10 5 23 3 30 -3 7 9 24
25 39 22 21 26 29 15 35 -9 6 -4 10 17 14 23 4 29 10 27 26 -1 11 6 29 17 40
10 11 22 30 25 42 5 13 12 19 22 15 11 -4 15 0 12 13 -2 13 3 19 17 19 23 0
39 17 24 25 -14 9 48 97 73 103 18 5 19 8 8 21 -11 14 -8 16 19 16 23 0 30 4
25 12 -16 26 -10 45 18 57 21 10 26 16 18 25 -12 15 -3 26 20 26 12 0 18 8 18
24 0 15 15 39 41 65 23 22 41 50 41 62 0 18 2 19 15 9 12 -10 16 -8 24 11 4
13 6 29 4 36 -3 6 5 16 16 23 12 6 21 20 21 30 0 15 7 20 28 21 15 0 21 3 14
6 -17 6 4 33 25 33 10 0 14 7 10 20 -3 11 -1 20 3 20 4 0 6 9 3 20 -4 13 0 20
10 20 20 0 45 30 26 31 -8 1 0 4 16 8 20 5 29 12 27 23 -1 9 7 23 19 32 13 8
22 25 22 40 0 15 3 29 8 32 5 3 9 0 9 -6 0 -6 5 -8 11 -5 6 4 8 13 5 20 -5 13
15 27 50 34 4 0 1 7 -5 15 -9 11 -7 19 12 38 14 14 28 34 31 45 5 16 12 19 29
15 20 -5 21 -4 8 12 -13 15 -12 18 8 23 17 4 19 8 10 19 -9 11 -8 15 5 20 9 3
16 13 16 20 0 8 7 17 16 21 8 3 20 17 25 32 8 19 12 22 18 12 11 -18 30 14 24
40 -3 11 3 22 17 29 12 7 19 18 16 26 -3 9 4 16 19 20 17 4 25 13 25 27 0 11
3 17 7 14 11 -12 33 14 33 39 0 13 4 24 8 24 4 0 16 14 25 30 10 17 25 30 33
30 12 0 19 19 15 43 -1 5 3 6 9 2 20 -12 40 14 30 40 -9 24 1 42 19 31 4 -3
13 6 19 19 7 14 18 25 26 25 7 0 16 9 19 20 3 11 1 18 -4 14 -5 -3 -6 2 -3 10
3 9 9 16 13 16 9 0 42 56 36 62 -3 2 5 4 18 4 16 -1 21 4 19 18 -3 14 1 18 16
14 17 -5 20 -1 18 23 -1 16 1 29 6 29 4 0 5 7 1 16 -4 11 -1 15 13 12 14 -2
19 3 18 20 0 17 5 22 23 22 19 0 23 5 23 30 0 19 7 33 20 40 11 6 20 20 20 30
0 14 7 20 21 20 14 0 19 5 16 14 -6 15 19 30 34 20 5 -3 9 -2 8 3 -5 26 4 51
26 77 19 22 22 32 13 38 -13 8 -10 9 26 12 13 1 20 9 21 26 2 32 47 98 63 92
7 -2 12 5 12 17 0 23 16 37 23 19 3 -8 9 -3 15 12 5 15 6 27 0 31 -5 3 3 14
17 25 14 10 25 24 25 30 0 6 6 17 14 23 11 9 15 9 19 -1 3 -7 6 -1 6 15 1 16
7 27 15 27 22 0 38 24 24 38 -8 8 -2 19 22 40 22 21 28 31 18 35 -7 3 -1 6 15
6 25 1 31 9 28 38 -2 15 30 53 40 47 4 -2 5 5 2 16 -4 14 0 20 10 20 9 0 21 9
27 20 6 11 20 20 31 20 16 0 18 3 9 19 -8 16 -5 25 15 45 14 14 24 31 23 38
-2 8 6 13 20 12 18 -1 22 4 19 18 -3 10 -2 18 2 18 10 0 35 50 36 69 0 14 34
32 47 24 4 -2 5 3 2 12 -5 11 0 18 14 22 11 2 22 13 25 24 3 10 1 17 -4 13
-19 -11 -8 7 21 35 21 20 27 31 18 34 -8 3 -2 9 15 16 25 10 32 21 28 45 -1 4
7 16 19 26 11 9 20 25 20 34 0 11 7 16 18 14 11 -2 17 3 17 17 0 14 9 22 30
26 17 4 25 7 18 8 -19 2 -3 38 38 81 21 22 39 47 39 55 0 8 6 15 14 15 19 0
40 26 27 35 -7 4 -1 15 14 29 14 13 25 31 25 40 0 9 8 16 20 16 13 0 20 7 20
19 0 10 8 22 17 25 15 6 15 8 3 16 -12 8 -12 10 3 16 9 3 17 14 17 23 0 26 11
33 28 18 13 -10 15 -9 10 10 -5 17 0 24 22 33 21 9 26 17 23 31 -4 13 2 25 16
35 12 9 20 23 19 32 -2 10 3 17 13 16 9 -1 23 13 31 30 8 17 21 44 29 60 7 15
24 32 36 37 13 5 23 11 23 14 0 4 -4 3 -10 0 -6 -3 -7 1 -4 10 4 9 13 14 20
11 8 -3 18 4 24 14 6 12 7 20 1 20 -5 0 -8 7 -7 16 3 19 35 46 47 39 4 -3 5 4
2 15 -4 15 0 20 14 20 27 0 35 10 22 27 -11 13 0 19 26 13 5 -1 7 1 3 5 -4 4
0 14 8 22 10 11 12 19 4 27 -12 16 -3 26 23 26 12 0 17 5 14 14 -5 13 18 31
36 28 4 -1 7 7 7 18 0 29 48 97 72 104 17 4 19 8 9 19 -9 12 -7 16 9 20 24 6
43 49 27 59 -8 4 -5 9 6 12 9 4 25 8 34 12 15 4 15 6 3 14 -12 7 -8 12 17 21
18 6 31 15 28 19 -6 9 26 70 37 70 4 0 5 6 2 14 -3 8 4 16 20 20 17 4 23 11
20 21 -4 8 -1 15 5 15 6 0 20 18 31 40 11 22 25 40 31 40 6 0 8 7 5 15 -4 10
2 19 17 24 12 5 25 7 28 5 3 -2 4 8 1 22 -3 18 1 30 17 40 12 9 21 21 20 27
-4 32 1 40 16 27 12 -10 16 -8 25 14 8 23 20 30 42 27 3 0 3 12 -2 28 -9 32 0
54 21 49 9 -2 14 5 13 19 0 12 2 21 5 20 18 -4 49 16 45 28 -3 8 4 20 15 27
12 7 21 18 21 24 0 7 11 22 24 35 16 15 21 28 15 35 -6 7 0 15 16 24 23 12 30
27 26 58 -1 6 5 12 13 12 9 0 20 9 26 20 6 11 18 20 27 20 10 0 14 6 10 19 -5
22 18 61 37 61 7 0 12 10 12 23 -1 15 4 21 15 19 9 -1 19 5 23 13 4 11 2 14
-7 10 -6 -4 -2 2 9 12 31 26 47 60 31 66 -12 5 -11 6 38 22 16 5 17 8 5 15
-12 7 -8 12 16 20 24 8 31 16 27 30 -3 10 4 27 16 39 12 12 21 28 21 36 0 8 3
14 8 13 16 -3 40 15 36 27 -3 7 4 19 15 27 12 8 21 28 23 45 2 23 6 29 20 25
13 -3 18 1 18 18 0 15 5 20 14 17 8 -3 20 1 26 9 9 10 9 14 1 14 -14 0 10 50
33 69 9 7 13 17 10 22 -3 5 3 9 14 9 25 0 34 10 21 26 -7 9 -3 19 16 38 14 14
24 31 23 38 -2 8 6 13 20 12 18 0 22 5 22 30 0 20 3 26 9 18 6 -11 10 -11 18
0 16 21 22 45 13 54 -5 5 -5 15 0 24 8 12 10 12 10 1 0 -11 3 -11 15 -1 8 7
15 19 15 27 0 10 7 14 19 10 14 -3 19 0 19 12 -1 27 6 44 29 70 16 17 19 27
11 32 -7 4 1 9 17 11 23 2 29 8 30 32 0 15 8 34 18 41 9 7 17 16 17 20 0 4 10
18 23 31 43 46 59 66 53 71 -2 3 6 15 18 27 13 11 26 31 30 43 5 15 12 20 23
16 12 -5 15 -2 11 9 -8 20 45 100 73 110 18 7 19 11 9 23 -10 12 -9 15 4 15 9
0 16 5 16 10 0 6 7 10 16 10 13 0 14 3 4 15 -10 12 -7 19 15 39 15 14 25 31
23 37 -2 7 18 34 46 61 27 26 44 48 37 48 -7 0 -9 5 -6 10 3 6 14 10 24 10 10
0 21 9 24 20 3 11 1 18 -4 14 -14 -9 -11 1 10 24 10 12 24 22 30 22 7 0 9 5 4
13 -12 20 -12 37 0 37 7 1 1 9 -11 20 -18 15 -28 17 -43 10 -13 -7 -19 -7 -19
-1 0 7 -9 7 -25 1 -16 -6 -25 -6 -25 0 0 6 -9 6 -25 0 -16 -6 -25 -6 -25 1 0
6 -7 6 -20 -1 -13 -7 -20 -7 -20 -1 0 7 -9 7 -26 1 -15 -6 -23 -6 -19 -1 3 6
-6 6 -25 1 -16 -5 -30 -5 -30 -1 0 5 -18 5 -39 1 -21 -4 -46 -3 -54 2 -9 5
-18 4 -22 -2 -4 -7 -12 -7 -25 0 -13 7 -21 7 -25 0 -5 -8 -11 -8 -20 0 -9 8
-15 8 -20 0 -4 -6 -12 -7 -24 0 -12 6 -22 5 -28 -1 -8 -8 -13 -7 -17 0 -5 8
-13 8 -26 1 -13 -7 -21 -7 -25 0 -4 6 -12 7 -23 1 -9 -5 -26 -5 -39 0 -15 5
-23 5 -23 -2 0 -6 -4 -7 -10 -4 -15 9 -89 12 -84 3 3 -4 -6 -4 -20 2 -17 6
-26 6 -26 -1 0 -6 -7 -6 -19 1 -13 6 -22 7 -26 0 -4 -6 -15 -6 -30 0 -16 6
-25 6 -25 0 0 -6 -10 -6 -26 0 -16 7 -23 7 -19 0 4 -7 -3 -7 -19 0 -16 6 -26
6 -26 0 0 -6 -9 -6 -25 0 -16 6 -25 6 -25 0 0 -6 -9 -6 -25 0 -16 6 -25 6 -25
0 0 -6 -9 -6 -25 0 -16 6 -25 6 -25 -1 0 -6 -7 -6 -20 1 -13 7 -20 7 -20 1 0
-7 -9 -7 -25 -1 -14 5 -25 6 -25 2 0 -4 -13 -7 -30 -7 -16 0 -30 3 -30 7 0 4
-11 3 -25 -2 -16 -6 -25 -6 -25 0 0 6 -9 6 -25 0 -16 -6 -25 -6 -25 1 0 6 -7
6 -20 -1 -13 -7 -20 -7 -20 -1 0 7 -9 7 -26 1 -15 -6 -23 -6 -19 -1 3 6 -6 6
-25 1 -16 -5 -30 -5 -30 -2 0 9 -64 7 -79 -3 -6 -3 -11 -1 -11 5 0 8 -6 8 -20
0 -14 -8 -20 -8 -20 0 0 8 -6 8 -20 0 -14 -8 -20 -8 -20 0 0 8 -6 8 -20 0 -14
-8 -20 -8 -20 0 0 8 -6 8 -20 0 -14 -8 -20 -8 -20 0 0 8 -6 8 -20 0 -14 -8
-20 -8 -20 0 0 8 -6 8 -20 0 -14 -8 -20 -8 -20 0 0 8 -6 8 -20 0 -14 -8 -20
-8 -20 0 0 8 -6 8 -20 0 -14 -8 -20 -8 -20 0 0 8 -6 8 -20 0 -14 -8 -20 -8
-20 0 0 8 -6 8 -20 0 -14 -8 -20 -8 -20 0 0 8 -6 8 -20 0 -14 -8 -20 -8 -20 0
0 8 -6 8 -20 0 -14 -8 -20 -8 -20 0 0 8 -6 8 -20 0 -14 -8 -20 -8 -20 0 0 8
-6 8 -20 0 -14 -8 -20 -8 -20 0 0 6 -5 8 -11 5 -17 -11 -59 -13 -65 -4 -3 5
-14 5 -24 -1 -13 -7 -21 -7 -25 0 -4 7 -13 7 -26 0 -13 -8 -19 -7 -19 0 0 7
-6 8 -18 1 -11 -6 -24 -6 -34 0 -11 6 -19 6 -23 -1 -4 -7 -12 -7 -25 0 -13 7
-21 7 -25 0 -4 -7 -13 -7 -24 0 -12 6 -22 5 -28 -1 -8 -8 -13 -7 -17 0 -5 8
-13 8 -27 1 -13 -8 -19 -7 -19 0 0 7 -6 8 -18 1 -11 -6 -24 -6 -34 0 -11 6
-19 6 -23 -1 -4 -7 -12 -7 -24 0 -12 6 -22 5 -28 -1 -8 -8 -13 -7 -17 0 -5 8
-13 8 -26 1 -13 -7 -21 -7 -25 0 -4 7 -13 7 -26 0 -13 -8 -19 -7 -19 0 0 7 -6
8 -18 1 -11 -6 -24 -6 -34 0 -11 6 -19 6 -23 -1 -4 -7 -12 -7 -25 0 -13 7 -21
7 -25 0 -4 -7 -13 -7 -24 0 -12 6 -22 5 -28 -1 -8 -8 -13 -7 -17 0 -5 8 -13 8
-27 1 -13 -8 -19 -7 -19 0 0 7 -6 8 -18 1 -11 -6 -24 -6 -34 0 -11 6 -19 6
-23 -1 -4 -7 -12 -7 -24 0 -12 6 -22 5 -28 -1 -8 -8 -13 -7 -17 0 -5 8 -13 8
-26 1 -13 -7 -21 -7 -25 0 -4 7 -13 7 -26 0 -13 -8 -19 -7 -19 0 0 7 -6 8 -18
1 -11 -6 -24 -6 -34 0 -11 6 -19 6 -23 -1 -4 -7 -12 -7 -25 0 -13 7 -21 7 -25
0 -4 -6 -13 -7 -23 -2 -19 9 -54 8 -71 -2 -6 -4 -11 -2 -11 4 0 8 -6 8 -20 0
-14 -8 -20 -8 -20 0 0 8 -6 8 -20 0 -14 -8 -20 -8 -20 0 0 8 -6 8 -20 0 -14
-8 -20 -8 -20 0 0 8 -6 8 -20 0 -14 -8 -20 -8 -20 0 0 8 -6 8 -20 0 -14 -8
-20 -8 -20 0 0 8 -6 8 -20 0 -14 -8 -20 -8 -20 0 0 8 -6 8 -20 0 -14 -8 -20
-8 -20 0 0 8 -6 8 -20 0 -14 -8 -20 -8 -20 0 0 8 -6 8 -20 0 -14 -8 -20 -8
-20 0 0 8 -6 8 -20 0 -14 -8 -20 -8 -20 0 0 8 -6 8 -20 0 -14 -8 -20 -8 -20 0
0 8 -6 8 -20 0 -14 -8 -20 -8 -20 0 0 8 -6 8 -20 0 -14 -8 -20 -8 -20 0 0 8
-6 8 -20 0 -14 -8 -20 -8 -20 0 0 8 -6 8 -20 0 -14 -8 -20 -8 -20 0 0 8 -6 8
-20 0 -14 -8 -20 -8 -20 0 0 8 -6 8 -20 0 -14 -8 -20 -8 -20 0 0 8 -6 8 -20 0
-14 -8 -20 -8 -20 0 0 8 -6 8 -20 0 -14 -8 -20 -8 -20 0 0 8 -6 8 -20 0 -14
-8 -20 -8 -20 0 0 8 -6 8 -20 0 -14 -8 -20 -8 -20 0 0 8 -6 8 -20 0 -14 -8
-20 -8 -20 0 0 8 -6 8 -20 0 -14 -8 -20 -8 -20 0 0 8 -6 8 -20 0 -14 -8 -20
-8 -20 0 0 8 -6 8 -20 0 -14 -8 -20 -8 -20 0 0 8 -6 8 -20 0 -14 -8 -20 -8
-20 0 0 8 -6 8 -20 0 -14 -8 -20 -8 -20 0 0 8 -6 8 -20 0 -14 -8 -20 -8 -20 0
0 8 -6 8 -20 0 -14 -8 -20 -8 -20 0 0 8 -6 8 -20 0 -14 -8 -20 -8 -20 0 0 6
-5 8 -11 5 -17 -11 -59 -13 -65 -4 -3 5 -14 5 -24 -1 -13 -7 -21 -7 -25 0 -4
7 -13 7 -26 0 -13 -8 -19 -7 -19 0 0 7 -6 8 -18 1 -11 -6 -24 -6 -34 0 -11 6
-19 6 -23 -1 -4 -7 -12 -7 -25 0 -13 7 -21 7 -25 0 -4 -7 -13 -7 -24 0 -12 6
-22 5 -28 -1 -8 -8 -13 -7 -17 0 -5 8 -13 8 -27 1 -13 -8 -19 -7 -19 0 0 7 -6
8 -18 1 -11 -6 -24 -6 -34 0 -11 6 -19 6 -23 -1 -4 -7 -12 -7 -24 0 -12 6 -22
5 -28 -1 -8 -8 -13 -7 -17 0 -5 8 -13 8 -26 1 -13 -7 -21 -7 -25 0 -4 7 -13 7
-26 0 -13 -8 -19 -7 -19 0 0 7 -6 8 -18 1 -11 -6 -24 -6 -34 0 -11 6 -19 6
-23 -1 -4 -7 -12 -7 -25 0 -13 7 -21 7 -25 0 -4 -7 -13 -7 -24 0 -12 6 -22 5
-28 -1 -8 -8 -13 -7 -17 0 -5 8 -13 8 -27 1 -13 -8 -19 -7 -19 0 0 7 -6 8 -18
1 -11 -6 -24 -6 -34 0 -11 6 -19 6 -23 -1 -4 -7 -12 -7 -24 0 -12 6 -22 5 -28
-1 -8 -8 -13 -7 -17 0 -5 8 -13 8 -26 1 -13 -7 -21 -7 -25 0 -4 7 -13 7 -26 0
-13 -8 -19 -7 -19 0 0 7 -6 8 -18 1 -11 -6 -24 -6 -34 0 -11 6 -19 6 -23 -1
-4 -7 -12 -7 -25 0 -13 7 -21 7 -25 0 -4 -6 -13 -7 -23 -2 -19 9 -54 8 -71 -2
-6 -4 -11 -2 -11 4 0 8 -6 8 -20 0 -14 -8 -20 -8 -20 0 0 8 -6 8 -20 0 -14 -8
-20 -8 -20 0 0 8 -6 8 -20 0 -14 -8 -20 -8 -20 0 0 8 -6 8 -20 0 -14 -8 -20
-8 -20 0 0 8 -6 8 -20 0 -14 -8 -20 -8 -20 0 0 8 -6 8 -20 0 -14 -8 -20 -8
-20 0 0 8 -6 8 -20 0 -14 -8 -20 -8 -20 0 0 8 -6 8 -20 0 -14 -8 -20 -8 -20 0
0 8 -6 8 -20 0 -14 -8 -20 -8 -20 0 0 8 -6 8 -20 0 -14 -8 -20 -8 -20 0 0 8
-6 8 -20 0 -14 -8 -20 -8 -20 0 0 8 -6 8 -20 0 -14 -8 -20 -8 -20 0 0 8 -6 8
-20 0 -14 -8 -20 -8 -20 0 0 8 -6 8 -20 0 -14 -8 -20 -8 -20 0 0 7 -6 8 -17 2
-20 -9 -54 -8 -71 2 -6 3 -13 2 -17 -4 -4 -7 -12 -7 -25 0 -13 7 -21 7 -25 0
-5 -8 -11 -8 -20 0 -9 8 -15 8 -20 0 -4 -6 -12 -7 -24 0 -12 6 -22 5 -28 -1
-8 -8 -13 -7 -17 0 -5 8 -13 8 -26 1 -13 -7 -21 -7 -25 0 -4 6 -12 7 -23 1 -9
-5 -26 -5 -39 0 -15 5 -23 5 -23 -2 0 -6 -4 -7 -10 -4 -15 9 -89 12 -84 3 3
-4 -6 -4 -20 2 -17 6 -26 6 -26 -1 0 -6 -7 -6 -19 1 -13 6 -22 7 -26 0 -4 -6
-15 -6 -30 0 -16 6 -25 6 -25 0 0 -6 -10 -6 -26 0 -16 7 -23 7 -19 0 4 -7 -3
-7 -19 0 -16 6 -26 6 -26 0 0 -6 -9 -6 -25 0 -16 6 -25 6 -25 0 0 -6 -9 -6
-25 0 -16 6 -25 6 -25 0 0 -6 -9 -6 -25 0 -16 6 -25 6 -25 -1 0 -6 -7 -6 -20
1 -13 7 -20 7 -20 1 0 -7 -9 -7 -25 -1 -14 5 -25 6 -25 2 0 -4 -13 -7 -30 -7
-16 0 -30 3 -30 7 0 4 -11 3 -25 -2 -16 -6 -25 -6 -25 0 0 6 -9 6 -25 0 -16
-6 -25 -6 -25 1 0 6 -7 6 -20 -1 -13 -7 -20 -7 -20 -1 0 7 -9 7 -26 1 -15 -6
-23 -6 -19 -1 3 6 -6 6 -25 1 -16 -5 -30 -5 -30 -1 0 5 -18 5 -39 1 -21 -4
-46 -3 -54 2 -9 5 -18 4 -22 -2 -4 -7 -12 -7 -25 0 -13 7 -21 7 -25 0 -5 -8
-11 -8 -20 0 -9 8 -15 8 -20 0 -4 -6 -12 -7 -24 0 -12 6 -22 5 -28 -1 -8 -8
-13 -7 -17 0 -5 8 -13 8 -26 1 -13 -7 -21 -7 -25 0 -4 6 -12 7 -23 1 -9 -5
-26 -5 -39 0 -15 5 -23 5 -23 -2 0 -6 -4 -7 -10 -4 -15 9 -89 12 -84 3 3 -4
-6 -4 -20 2 -17 6 -26 6 -26 -1 0 -6 -7 -6 -19 1 -13 6 -22 7 -26 0 -4 -6 -15
-6 -30 0 -16 6 -25 6 -25 0 0 -6 -10 -6 -26 0 -16 7 -23 7 -19 0 4 -7 -3 -7
-19 0 -16 6 -26 6 -26 0 0 -6 -9 -6 -25 0 -16 6 -25 6 -25 0 0 -6 -9 -6 -25 0
-16 6 -25 6 -25 0 0 -6 -9 -6 -25 0 -16 6 -25 6 -25 -1 0 -6 -7 -6 -20 1 -13
7 -20 7 -20 1 0 -7 -9 -7 -25 -1 -14 5 -25 6 -25 2 0 -4 -13 -7 -30 -7 -16 0
-30 3 -30 7 0 4 -11 3 -25 -2 -16 -6 -25 -6 -25 0 0 6 -9 6 -25 0 -16 -6 -25
-6 -25 1 0 6 -7 6 -20 -1 -13 -7 -20 -7 -20 -1 0 7 -9 7 -26 1 -15 -6 -23 -6
-19 -1 3 6 -6 6 -25 1 -16 -5 -30 -5 -30 -1 0 4 -22 5 -50 1 -27 -4 -50 -3
-50 2 0 5 -9 4 -19 -2 -13 -7 -22 -7 -26 0 -4 7 -12 7 -25 0 -13 -7 -21 -7
-25 0 -4 7 -13 7 -26 0 -12 -7 -19 -7 -19 -1 0 7 -9 7 -25 1 -16 -6 -25 -6
-25 0 0 6 -9 6 -25 0 -16 -6 -25 -6 -25 1 0 6 -7 6 -20 -1 -13 -7 -20 -7 -20
-1 0 7 -9 7 -26 1 -15 -6 -23 -6 -19 -1 3 6 -6 6 -25 1 -18 -5 -30 -5 -30 0 0
6 -10 6 -25 0 -16 -6 -25 -6 -25 0 0 6 -10 6 -26 0 -14 -6 -23 -7 -21 -2 3 4
-8 7 -24 7 -16 0 -29 -4 -29 -8 0 -4 -9 -3 -19 3 -13 6 -22 7 -26 0 -4 -6 -15
-6 -30 0 -17 6 -25 6 -25 -1 0 -6 -4 -7 -10 -4 -15 9 -89 12 -84 3 3 -4 -6 -4
-20 2 -17 6 -26 6 -26 -1 0 -6 -7 -6 -19 1 -13 6 -22 7 -26 0 -4 -6 -15 -6
-30 0 -16 6 -25 6 -25 0 0 -6 -10 -6 -26 0 -16 7 -23 7 -19 0 4 -7 -3 -7 -19
0 -16 6 -26 6 -26 0 0 -6 -9 -6 -25 0 -16 6 -25 6 -25 -1 0 -6 -7 -6 -19 1
-13 6 -22 7 -26 0 -4 -6 -15 -6 -30 0 -16 6 -25 6 -25 0 0 -6 -9 -6 -25 0 -15
6 -26 6 -30 0 -4 -6 -14 -7 -23 -2 -19 9 -54 8 -71 -2 -6 -4 -11 -2 -11 4 0 8
-6 8 -20 0 -14 -8 -20 -8 -20 0 0 8 -6 8 -20 0 -14 -8 -20 -8 -20 0 0 8 -6 8
-20 0 -14 -8 -20 -8 -20 0 0 8 -6 8 -20 0 -14 -8 -20 -8 -20 0 0 8 -6 8 -20 0
-14 -8 -20 -8 -20 0 0 8 -6 8 -20 0 -14 -8 -20 -8 -20 0 0 8 -6 8 -20 0 -14
-8 -20 -8 -20 0 0 8 -6 8 -20 0 -14 -8 -20 -8 -20 0 0 8 -6 8 -20 0 -14 -8
-20 -8 -20 0 0 8 -6 8 -20 0 -14 -8 -20 -8 -20 0 0 8 -6 8 -20 0 -14 -8 -20
-8 -20 0 0 8 -6 8 -20 0 -14 -8 -20 -8 -20 0 0 8 -6 8 -20 0 -14 -8 -20 -8
-20 0 0 8 -6 8 -20 0 -14 -8 -20 -8 -20 0 0 6 -5 8 -11 5 -17 -11 -59 -13 -65
-4 -3 5 -14 5 -24 -1 -13 -7 -21 -7 -25 0 -4 7 -13 7 -26 0 -13 -8 -19 -7 -19
0 0 7 -6 8 -18 1 -11 -6 -24 -6 -34 0 -11 6 -19 6 -23 -1 -4 -7 -12 -7 -25 0
-13 7 -21 7 -25 0 -4 -7 -13 -7 -24 0 -12 6 -22 5 -28 -1 -8 -8 -13 -7 -17 0
-5 8 -13 8 -27 1 -13 -8 -19 -7 -19 0 0 7 -6 8 -18 1 -11 -6 -24 -6 -34 0 -11
6 -19 6 -23 -1 -4 -7 -12 -7 -24 0 -12 6 -22 5 -28 -1 -8 -8 -13 -8 -17 0 -4
7 -15 7 -31 1 -14 -5 -25 -5 -27 0 -2 5 -8 6 -14 2z"/>
</g>
</svg>
